<?xml version="1.0" encoding="UTF-8" standalone="no"?>
<!DOCTYPE svg PUBLIC "-//W3C//DTD SVG 1.1//EN"
 "http://www.w3.org/Graphics/SVG/1.1/DTD/svg11.dtd">
<!-- Generated by graphviz version 12.1.1 (20240910.0053)
 -->
<!-- Title: INFRA Pages: 1 -->
<svg width="888pt" height="512pt"
 viewBox="0.00 0.00 887.91 512.00" xmlns="http://www.w3.org/2000/svg" xmlns:xlink="http://www.w3.org/1999/xlink">
<g id="graph0" class="graph" transform="scale(1 1) rotate(0) translate(4 508)">
<title>INFRA</title>
<polygon fill="white" stroke="none" points="-4,4 -4,-508 883.91,-508 883.91,4 -4,4"/>
<!-- vpc -->
<g id="node1" class="node">
<title>vpc</title>
<ellipse fill="#e6e6e6" stroke="black" stroke-width="2" cx="309.89" cy="-36" rx="113.73" ry="36"/>
<text text-anchor="middle" x="309.89" y="-40.2" font-family="Arial" font-size="14.00">vpc</text>
<text text-anchor="middle" x="309.89" y="-23.4" font-family="Arial" font-size="14.00">(google_compute_network)</text>
</g>
<!-- subnet -->
<g id="node2" class="node">
<title>subnet</title>
<ellipse fill="#e6e6e6" stroke="black" stroke-width="2" cx="153.89" cy="-144" rx="127.56" ry="36"/>
<text text-anchor="middle" x="153.89" y="-148.2" font-family="Arial" font-size="14.00">subnet</text>
<text text-anchor="middle" x="153.89" y="-131.4" font-family="Arial" font-size="14.00">(google_compute_subnetwork)</text>
</g>
<!-- subnet&#45;&gt;vpc -->
<g id="edge1" class="edge">
<title>subnet&#45;&gt;vpc</title>
<path fill="none" stroke="black" d="M201.97,-110.33C218.21,-99.3 236.49,-86.88 253.33,-75.44"/>
<polygon fill="black" stroke="black" points="254.95,-78.56 261.26,-70.05 251.02,-72.77 254.95,-78.56"/>
</g>
<!-- serverless&#45;vpc&#45;connector -->
<g id="node3" class="node">
<title>serverless&#45;vpc&#45;connector</title>
<ellipse fill="#e6e6e6" stroke="black" stroke-width="2" cx="709.89" cy="-144" rx="133.28" ry="36"/>
<text text-anchor="middle" x="709.89" y="-148.2" font-family="Arial" font-size="14.00">serverless&#45;vpc&#45;connector</text>
<text text-anchor="middle" x="709.89" y="-131.4" font-family="Arial" font-size="14.00">(google_vpc_access_connector)</text>
</g>
<!-- serverless&#45;vpc&#45;connector&#45;&gt;vpc -->
<g id="edge2" class="edge">
<title>serverless&#45;vpc&#45;connector&#45;&gt;vpc</title>
<path fill="none" stroke="black" d="M615.86,-118.08C552.98,-101.42 470.46,-79.55 406.97,-62.73"/>
<polygon fill="black" stroke="black" points="408.17,-59.42 397.61,-60.25 406.38,-66.19 408.17,-59.42"/>
</g>
<!-- vpc&#45;connector&#45;firewall -->
<g id="node4" class="node">
<title>vpc&#45;connector&#45;firewall</title>
<ellipse fill="#e6e6e6" stroke="black" stroke-width="2" cx="192.89" cy="-360" rx="110.39" ry="36"/>
<text text-anchor="middle" x="192.89" y="-364.2" font-family="Arial" font-size="14.00">vpc&#45;connector&#45;firewall</text>
<text text-anchor="middle" x="192.89" y="-347.4" font-family="Arial" font-size="14.00">(google_compute_firewall)</text>
</g>
<!-- vpc&#45;connector&#45;firewall&#45;&gt;vpc -->
<g id="edge3" class="edge">
<title>vpc&#45;connector&#45;firewall&#45;&gt;vpc</title>
<path fill="none" stroke="black" d="M142.56,-327.49C71.54,-279.14 -43.08,-184.24 16.89,-108 38.93,-79.98 120.47,-61.68 191.95,-50.68"/>
<polygon fill="black" stroke="black" points="192.46,-54.15 201.83,-49.21 191.42,-47.23 192.46,-54.15"/>
</g>
<!-- vm&#45;instance -->
<g id="node8" class="node">
<title>vm&#45;instance</title>
<path fill="#b7e0ff" stroke="black" stroke-width="2" d="M297.28,-288C297.28,-288 132.5,-288 132.5,-288 126.5,-288 120.5,-282 120.5,-276 120.5,-276 120.5,-228 120.5,-228 120.5,-222 126.5,-216 132.5,-216 132.5,-216 297.28,-216 297.28,-216 303.28,-216 309.28,-222 309.28,-228 309.28,-228 309.28,-276 309.28,-276 309.28,-282 303.28,-288 297.28,-288"/>
<text text-anchor="middle" x="214.89" y="-256.2" font-family="Arial" font-size="14.00">vm&#45;instance</text>
<text text-anchor="middle" x="214.89" y="-239.4" font-family="Arial" font-size="14.00">(google_compute_instance)</text>
</g>
<!-- vpc&#45;connector&#45;firewall&#45;&gt;vm&#45;instance -->
<g id="edge4" class="edge">
<title>vpc&#45;connector&#45;firewall&#45;&gt;vm&#45;instance</title>
<path fill="none" stroke="black" d="M200.22,-323.7C201.85,-315.84 203.61,-307.38 205.31,-299.15"/>
<polygon fill="black" stroke="black" points="208.69,-300.13 207.29,-289.62 201.83,-298.7 208.69,-300.13"/>
</g>
<!-- allow&#45;ssh -->
<g id="node5" class="node">
<title>allow&#45;ssh</title>
<ellipse fill="#e6e6e6" stroke="black" stroke-width="2" cx="447.89" cy="-144" rx="110.39" ry="36"/>
<text text-anchor="middle" x="447.89" y="-148.2" font-family="Arial" font-size="14.00">allow&#45;ssh</text>
<text text-anchor="middle" x="447.89" y="-131.4" font-family="Arial" font-size="14.00">(google_compute_firewall)</text>
</g>
<!-- allow&#45;ssh&#45;&gt;vpc -->
<g id="edge5" class="edge">
<title>allow&#45;ssh&#45;&gt;vpc</title>
<path fill="none" stroke="black" d="M405.36,-110.33C391.46,-99.65 375.87,-87.67 361.38,-76.54"/>
<polygon fill="black" stroke="black" points="363.78,-73.98 353.72,-70.67 359.52,-79.53 363.78,-73.98"/>
</g>
<!-- encoded&#45;alpha&#45;code&#45;bucket -->
<g id="node6" class="node">
<title>encoded&#45;alpha&#45;code&#45;bucket</title>
<path fill="#fff5cd" stroke="black" stroke-width="2" d="M866.68,-281.45C866.68,-285.07 824.19,-288 771.89,-288 719.59,-288 677.11,-285.07 677.11,-281.45 677.11,-281.45 677.11,-222.55 677.11,-222.55 677.11,-218.93 719.59,-216 771.89,-216 824.19,-216 866.68,-218.93 866.68,-222.55 866.68,-222.55 866.68,-281.45 866.68,-281.45"/>
<path fill="none" stroke="black" stroke-width="2" d="M866.68,-281.45C866.68,-277.84 824.19,-274.91 771.89,-274.91 719.59,-274.91 677.11,-277.84 677.11,-281.45"/>
<text text-anchor="middle" x="771.89" y="-256.2" font-family="Arial" font-size="14.00">encoded&#45;alpha&#45;code&#45;bucket</text>
<text text-anchor="middle" x="771.89" y="-239.4" font-family="Arial" font-size="14.00">(google_storage_bucket)</text>
</g>
<!-- encoded&#45;alpha&#45;code&#45;object -->
<g id="node7" class="node">
<title>encoded&#45;alpha&#45;code&#45;object</title>
<path fill="#fff5cd" stroke="black" stroke-width="2" d="M879.91,-389.45C879.91,-393.07 831.49,-396 771.89,-396 712.29,-396 663.88,-393.07 663.88,-389.45 663.88,-389.45 663.88,-330.55 663.88,-330.55 663.88,-326.93 712.29,-324 771.89,-324 831.49,-324 879.91,-326.93 879.91,-330.55 879.91,-330.55 879.91,-389.45 879.91,-389.45"/>
<path fill="none" stroke="black" stroke-width="2" d="M879.91,-389.45C879.91,-385.84 831.49,-382.91 771.89,-382.91 712.29,-382.91 663.88,-385.84 663.88,-389.45"/>
<text text-anchor="middle" x="771.89" y="-364.2" font-family="Arial" font-size="14.00">encoded&#45;alpha&#45;code&#45;object</text>
<text text-anchor="middle" x="771.89" y="-347.4" font-family="Arial" font-size="14.00">(google_storage_bucket_object)</text>
</g>
<!-- encoded&#45;alpha&#45;code&#45;object&#45;&gt;encoded&#45;alpha&#45;code&#45;bucket -->
<g id="edge6" class="edge">
<title>encoded&#45;alpha&#45;code&#45;object&#45;&gt;encoded&#45;alpha&#45;code&#45;bucket</title>
<path fill="none" stroke="black" d="M771.89,-323.7C771.89,-315.93 771.89,-307.57 771.89,-299.43"/>
<polygon fill="black" stroke="black" points="775.39,-299.66 771.89,-289.66 768.39,-299.66 775.39,-299.66"/>
</g>
<!-- vm&#45;instance&#45;&gt;vpc -->
<g id="edge7" class="edge">
<title>vm&#45;instance&#45;&gt;vpc</title>
<path fill="none" stroke="black" d="M262.7,-215.8C273.63,-205.47 284.03,-193.32 290.89,-180 306.18,-150.32 310.7,-112.78 311.52,-83.61"/>
<polygon fill="black" stroke="black" points="315.02,-84.03 311.65,-73.98 308.02,-83.94 315.02,-84.03"/>
</g>
<!-- vm&#45;instance&#45;&gt;subnet -->
<g id="edge8" class="edge">
<title>vm&#45;instance&#45;&gt;subnet</title>
<path fill="none" stroke="black" d="M194.58,-215.7C189.8,-207.39 184.64,-198.43 179.65,-189.76"/>
<polygon fill="black" stroke="black" points="182.69,-188.02 174.66,-181.09 176.62,-191.51 182.69,-188.02"/>
</g>
<!-- default_sa_permissions -->
<g id="node9" class="node">
<title>default_sa_permissions</title>
<ellipse fill="#e6e6e6" stroke="black" stroke-width="2" cx="493.89" cy="-252" rx="126.59" ry="36"/>
<text text-anchor="middle" x="493.89" y="-256.2" font-family="Arial" font-size="14.00">default_sa_permissions</text>
<text text-anchor="middle" x="493.89" y="-239.4" font-family="Arial" font-size="14.00">(google_project_iam_member)</text>
</g>
<!-- serverless&#45;vpc&#45;handler -->
<g id="node10" class="node">
<title>serverless&#45;vpc&#45;handler</title>
<path fill="#b7e0ff" stroke="black" stroke-width="2" d="M614.52,-396C614.52,-396 409.26,-396 409.26,-396 403.26,-396 397.26,-390 397.26,-384 397.26,-384 397.26,-336 397.26,-336 397.26,-330 403.26,-324 409.26,-324 409.26,-324 614.52,-324 614.52,-324 620.52,-324 626.52,-330 626.52,-336 626.52,-336 626.52,-384 626.52,-384 626.52,-390 620.52,-396 614.52,-396"/>
<text text-anchor="middle" x="511.89" y="-364.2" font-family="Arial" font-size="14.00">serverless&#45;vpc&#45;handler</text>
<text text-anchor="middle" x="511.89" y="-347.4" font-family="Arial" font-size="14.00">(google_cloudfunctions2_function)</text>
</g>
<!-- serverless&#45;vpc&#45;handler&#45;&gt;serverless&#45;vpc&#45;connector -->
<g id="edge10" class="edge">
<title>serverless&#45;vpc&#45;handler&#45;&gt;serverless&#45;vpc&#45;connector</title>
<path fill="none" stroke="black" d="M584.82,-323.6C600.92,-313.59 617,-301.64 629.89,-288 654.75,-261.71 650.23,-247.58 667.89,-216 672.72,-207.37 677.99,-198.24 683.13,-189.49"/>
<polygon fill="black" stroke="black" points="685.99,-191.53 688.06,-181.14 679.96,-187.97 685.99,-191.53"/>
</g>
<!-- serverless&#45;vpc&#45;handler&#45;&gt;encoded&#45;alpha&#45;code&#45;bucket -->
<g id="edge9" class="edge">
<title>serverless&#45;vpc&#45;handler&#45;&gt;encoded&#45;alpha&#45;code&#45;bucket</title>
<path fill="none" stroke="black" d="M598.83,-323.56C624.77,-312.98 653.28,-301.36 679.55,-290.65"/>
<polygon fill="black" stroke="black" points="680.54,-294.03 688.47,-287.01 677.89,-287.54 680.54,-294.03"/>
</g>
<!-- serverless&#45;vpc&#45;handler&#45;&gt;vm&#45;instance -->
<g id="edge11" class="edge">
<title>serverless&#45;vpc&#45;handler&#45;&gt;vm&#45;instance</title>
<path fill="none" stroke="black" d="M412.58,-323.56C382.87,-312.95 350.19,-301.29 320.1,-290.55"/>
<polygon fill="black" stroke="black" points="321.6,-287.37 311.01,-287.3 319.25,-293.96 321.6,-287.37"/>
</g>
<!-- serverless&#45;vpc&#45;handler&#45;&gt;default_sa_permissions -->
<g id="edge12" class="edge">
<title>serverless&#45;vpc&#45;handler&#45;&gt;default_sa_permissions</title>
<path fill="none" stroke="black" d="M505.9,-323.7C504.58,-315.93 503.16,-307.57 501.78,-299.43"/>
<polygon fill="black" stroke="black" points="505.24,-298.91 500.11,-289.63 498.34,-300.08 505.24,-298.91"/>
</g>
<!-- serverless&#45;vpc&#45;handler&#45;invoker -->
<g id="node11" class="node">
<title>serverless&#45;vpc&#45;handler&#45;invoker</title>
<ellipse fill="#e6e6e6" stroke="black" stroke-width="2" cx="319.89" cy="-468" rx="195.26" ry="36"/>
<text text-anchor="middle" x="319.89" y="-472.2" font-family="Arial" font-size="14.00">serverless&#45;vpc&#45;handler&#45;invoker</text>
<text text-anchor="middle" x="319.89" y="-455.4" font-family="Arial" font-size="14.00">(google_cloudfunctions2_function_iam_member)</text>
</g>
<!-- serverless&#45;vpc&#45;handler&#45;invoker&#45;&gt;serverless&#45;vpc&#45;handler -->
<g id="edge13" class="edge">
<title>serverless&#45;vpc&#45;handler&#45;invoker&#45;&gt;serverless&#45;vpc&#45;handler</title>
<path fill="none" stroke="black" d="M380.64,-433.46C398.8,-423.44 418.92,-412.33 437.83,-401.89"/>
<polygon fill="black" stroke="black" points="439.51,-404.96 446.57,-397.06 436.12,-398.83 439.51,-404.96"/>
</g>
<!-- serverless&#45;vpc&#45;handler&#45;run&#45;invoker -->
<g id="node12" class="node">
<title>serverless&#45;vpc&#45;handler&#45;run&#45;invoker</title>
<ellipse fill="#e6e6e6" stroke="black" stroke-width="2" cx="703.89" cy="-468" rx="170.45" ry="36"/>
<text text-anchor="middle" x="703.89" y="-472.2" font-family="Arial" font-size="14.00">serverless&#45;vpc&#45;handler&#45;run&#45;invoker</text>
<text text-anchor="middle" x="703.89" y="-455.4" font-family="Arial" font-size="14.00">(google_cloud_run_service_iam_member)</text>
</g>
<!-- serverless&#45;vpc&#45;handler&#45;run&#45;invoker&#45;&gt;serverless&#45;vpc&#45;handler -->
<g id="edge14" class="edge">
<title>serverless&#45;vpc&#45;handler&#45;run&#45;invoker&#45;&gt;serverless&#45;vpc&#45;handler</title>
<path fill="none" stroke="black" d="M643.93,-433.9C625.57,-423.76 605.15,-412.48 585.96,-401.89"/>
<polygon fill="black" stroke="black" points="587.82,-398.92 577.38,-397.15 584.44,-405.05 587.82,-398.92"/>
</g>
</g>
</svg>
